<svg version="1.2" xmlns="http://www.w3.org/2000/svg" viewBox="0 0 265 35" width="265" height="35">
	<style>
		.s0 { fill: #d39ac8 }
	</style>
	<path id="Compolic" class="s0" aria-label="Compolic"  d="m18 34.7q6.6 0 11.5-4.5 0.9-0.7 0.9-1.9 0.1-1.2-0.7-2.1-0.8-0.8-2-0.9-1.2 0-2 0.8-3.3 2.9-7.7 2.9-4.7 0-8.1-3.3-3.3-3.4-3.3-8.1 0-4.7 3.3-8.1 3.4-3.3 8.1-3.3 3.9 0 6.9 2.3 1 0.7 2.1 0.6 1.2-0.2 1.9-1.1 0.7-0.9 0.6-2.1-0.2-1.1-1.1-1.9-4.6-3.5-10.4-3.5-7.1 0-12.1 5-5 5-5 12.1 0 7.1 5 12.1 5 5 12.1 5zm34.5-28.7q4.8 0 8.2 3.4 3.4 3.4 3.4 8.1 0 4.8-3.4 8.1-3.4 3.4-8.2 3.4-4.7 0-8.1-3.4-3.4-3.3-3.4-8.1 0-4.7 3.4-8.1 3.4-3.4 8.1-3.4zm0 28.7q7.1 0 12.2-5.1 5-5 5-12.1 0-7.1-5-12.1-5.1-5.1-12.2-5.1-7.1 0-12.1 5.1-5 5-5 12.1 0 7.1 5 12.1 5 5.1 12.1 5.1zm57.7-34.3q-1-0.3-1.8 0.1-0.9 0.3-1.4 1.1l-11.8 19.5-11.7-19.5q-0.5-0.8-1.4-1.1-0.9-0.4-1.8-0.1-1 0.2-1.5 1-0.6 0.8-0.6 1.7v28.8q0 1.1 0.8 2 0.8 0.8 2 0.8 1.2 0 2-0.8 0.9-0.9 0.9-2v-18.6l8.9 14.7q0 0 0 0 0 0 0 0.1 0 0 0 0 0.1 0.1 0.2 0.2 0 0 0 0.1 0.1 0 0.1 0.1 0 0 0.1 0.1 0.1 0 0.1 0.1 0.1 0 0.2 0.1 0 0.1 0 0 0.1 0.1 0.2 0.1 0 0.1 0 0.1 0 0 0 0h0.1q0 0 0.2 0.1 0 0 0 0 0.1 0.1 0.2 0.1 0.1 0.1 0.1 0-0.1 0 0.1 0.1 0.3 0.1 0.6 0.1 0.1 0 0.1 0 0.6 0 1.2-0.2 0.1-0.1 0.1-0.1 0 0 0.1 0 0.1-0.1 0.2-0.1 0 0 0 0 0 0 0 0 0 0 0-0.1 0.1 0 0.2 0 0 0 0.1-0.1 0.1-0.1 0.1-0.1 0-0.1 0.1-0.1 0.1-0.1 0.1-0.1 0-0.1 0.1-0.1l0.1-0.1q0-0.1 0.1-0.2 0 0 0 0 0-0.1 0-0.1h0.1q0 0 0 0l8.9-14.7v18.6q0 1.1 0.8 2 0.8 0.8 2 0.8 1.2 0 2-0.8 0.8-0.9 0.8-2v-28.8q0-0.9-0.5-1.7-0.6-0.8-1.5-1zm25.4 14.3h-7.3v-8.7h7.1q2.1 0 3.6 1.2 1.5 1.3 1.5 3.1 0 1.8-1.4 3.1-1.5 1.3-3.5 1.3zm-0.2-14.4h-10q-1.1 0-1.9 0.8-0.9 0.9-0.9 2v28.8q0 1.1 0.9 2 0.8 0.8 1.9 0.8 1.2 0 2.1-0.8 0.8-0.9 0.8-2v-11.5h7q0.1 0 0.1 0 0 0 0.3 0h0.1q0 0 0 0 4.3-0.2 7.3-3.1 3.1-2.9 3.1-7 0-4.1-3.2-7-3.1-3-7.6-3zm33.3 5.7q4.7 0 8.1 3.4 3.4 3.4 3.4 8.1 0 4.8-3.4 8.1-3.4 3.4-8.1 3.4-4.8 0-8.2-3.4-3.4-3.3-3.4-8.1 0-4.7 3.4-8.1 3.4-3.4 8.2-3.4zm0 28.7q7.1 0 12.1-5.1 5-5 5-12.1 0-7.1-5-12.1-5-5.1-12.1-5.1-7.2 0-12.2 5.1-5 5-5 12.1 0 7.1 5 12.1 5 5.1 12.2 5.1zm28.5-34.3q-1.2 0-2 0.8-0.9 0.8-0.9 2v28.7q0 1.1 0.9 2 0.8 0.8 2 0.8h15.5q1.1 0 2-0.8 0.8-0.9 0.8-2 0-1.2-0.8-2-0.9-0.9-2-0.9h-12.7v-25.8q0-1.2-0.8-2-0.9-0.8-2-0.8zm27.3 34.3q1.2 0 2-0.8 0.9-0.9 0.9-2v-28.6q0-1.1-0.9-2-0.8-0.8-2-0.8-1.1 0-1.9 0.8-0.9 0.9-0.9 2v28.6q0 1.1 0.9 2 0.8 0.8 1.9 0.8zm28.1 0q6.6 0 11.5-4.5 0.9-0.7 0.9-1.9 0-1.2-0.7-2.1-0.8-0.8-2-0.9-1.2 0-2 0.8-3.3 2.9-7.7 2.9-4.8 0-8.1-3.3-3.4-3.4-3.4-8.1 0-4.7 3.4-8.1 3.3-3.3 8.1-3.3 3.9 0 6.9 2.3 1 0.7 2.1 0.6 1.2-0.2 1.9-1.1 0.7-0.9 0.6-2.1-0.2-1.1-1.1-1.9-4.6-3.5-10.4-3.5-7.1 0-12.1 5-5 5-5 12.1 0 7.1 5 12.1 5 5 12.1 5z"/>
</svg>
